<?xml version="1.0" encoding="utf-8"?>
<!-- Generator: Adobe Illustrator 16.0.0, SVG Export Plug-In . SVG Version: 6.00 Build 0)  -->
<!DOCTYPE svg PUBLIC "-//W3C//DTD SVG 1.1//EN" "http://www.w3.org/Graphics/SVG/1.1/DTD/svg11.dtd">
<svg version="1.1" id="Layer_1" xmlns="http://www.w3.org/2000/svg" xmlns:xlink="http://www.w3.org/1999/xlink" x="0px" y="0px"
	 width="64px" height="64px" viewBox="0 0 64 64" enable-background="new 0 0 64 64" xml:space="preserve">
<g id="Layer_1_1_" display="none">
	
		<line display="inline" fill="none" stroke="#708DC8" stroke-width="4" stroke-linecap="round" stroke-linejoin="round" stroke-miterlimit="10" x1="28" y1="25.999" x2="16.008" y2="25.999"/>
	
		<polyline display="inline" fill="none" stroke="#708DC8" stroke-width="4" stroke-linecap="round" stroke-linejoin="round" stroke-miterlimit="10" points="
		2,10 12,10 22,50 54,50 62,25.999 48,25.999 	"/>
	<circle display="inline" fill="none" stroke="#708DC8" stroke-width="4" stroke-miterlimit="10" cx="24" cy="58" r="4"/>
	<circle display="inline" fill="none" stroke="#708DC8" stroke-width="4" stroke-miterlimit="10" cx="50" cy="58" r="4"/>
	
		<line display="inline" fill="none" stroke="#708DC8" stroke-width="4" stroke-linecap="round" stroke-linejoin="round" stroke-miterlimit="10" x1="38" y1="2" x2="38" y2="25.165"/>
	<polyline display="inline" fill="none" stroke="#708DC8" stroke-width="4" stroke-linecap="round" stroke-miterlimit="10" points="
		28,14.956 38,25.165 48,14.956 	"/>
</g>
<g id="Layer_2" display="none">
	
		<line display="inline" fill="none" stroke="#202020" stroke-width="4" stroke-linecap="round" stroke-linejoin="round" stroke-miterlimit="10" x1="28" y1="25.999" x2="16.007" y2="25.999"/>
	
		<polyline display="inline" fill="none" stroke="#202020" stroke-width="4" stroke-linecap="round" stroke-linejoin="round" stroke-miterlimit="10" points="
		2,10 12,10 22,50 53.999,50 61.999,25.999 47.999,25.999 	"/>
	<circle display="inline" fill="none" stroke="#202020" stroke-width="4" stroke-miterlimit="10" cx="24" cy="58" r="4"/>
	<circle display="inline" fill="none" stroke="#202020" stroke-width="4" stroke-miterlimit="10" cx="49.999" cy="58" r="4"/>
	
		<line display="inline" fill="none" stroke="#202020" stroke-width="4" stroke-linecap="round" stroke-linejoin="round" stroke-miterlimit="10" x1="37.999" y1="2" x2="37.999" y2="25.165"/>
	<polyline display="inline" fill="none" stroke="#202020" stroke-width="4" stroke-linecap="round" stroke-miterlimit="10" points="
		28,14.956 37.999,25.165 47.999,14.956 	"/>
</g>
<g id="Layer_3">
	
		<polyline fill="none" stroke="#AAAAAA" stroke-width="4" stroke-linecap="round" stroke-linejoin="round" stroke-miterlimit="10" points="
		2,10 12,10 22,50 53.999,50 61.999,26 16.008,26 	"/>
	<circle fill="none" stroke="#AAAAAA" stroke-width="4" stroke-miterlimit="10" cx="24" cy="58" r="4"/>
	<circle fill="none" stroke="#AAAAAA" stroke-width="4" stroke-miterlimit="10" cx="49.999" cy="58" r="4"/>
</g>
</svg>
