<?xml version="1.0" encoding="utf-8"?>
<!-- Generator: Adobe Illustrator 16.0.0, SVG Export Plug-In . SVG Version: 6.00 Build 0)  -->
<!DOCTYPE svg PUBLIC "-//W3C//DTD SVG 1.1//EN" "http://www.w3.org/Graphics/SVG/1.1/DTD/svg11.dtd">
<svg version="1.1" id="Layer_1" xmlns="http://www.w3.org/2000/svg" xmlns:xlink="http://www.w3.org/1999/xlink" x="0px" y="0px"
	 width="788.215px" height="157.16px" viewBox="0 0 788.215 157.16" enable-background="new 0 0 788.215 157.16"
	 xml:space="preserve">
<g>
	<defs>
		<polyline id="SVGID_1_" points="706.829,-215.523 -85.171,-215.523 -85.171,396.477 706.829,396.477 		"/>
	</defs>
	<clipPath id="SVGID_2_">
		<use xlink:href="#SVGID_1_"  overflow="visible"/>
	</clipPath>
</g>
<g>
	<defs>
		<polyline id="SVGID_3_" points="792.136,425.709 0.135,425.709 0.135,-186.291 792.136,-186.291 		"/>
	</defs>
	<clipPath id="SVGID_4_">
		<use xlink:href="#SVGID_3_"  overflow="visible"/>
	</clipPath>
	<g clip-path="url(#SVGID_4_)">
		<defs>
			<polyline id="SVGID_5_" points="792.136,-186.291 0.135,-186.291 0.135,425.709 792.136,425.709 			"/>
		</defs>
		<clipPath id="SVGID_6_">
			<use xlink:href="#SVGID_5_"  overflow="visible"/>
		</clipPath>
		<path clip-path="url(#SVGID_6_)" fill="#D7DFF2" d="M149.218,157.16c-1.795,0-3.743-0.036-5.838-0.116
			c-2.098-0.069-3.516-0.111-4.265-0.111c-10.928-1.047-20.806-4.562-29.637-10.551c-1.346-0.898-2.73-1.871-4.15-2.916
			c-1.426-1.047-2.807-2.173-4.156-3.373l-0.897-0.893l19.308-19.54c-1.202-1.042-2.397-2.131-3.592-3.256
			c-1.2-1.116-2.171-2.205-2.918-3.25l-0.677-0.898l8.085-7.636l0.9,0.902c2.391,2.846,4.785,5.236,7.183,7.181l0.895,0.901
			l-5.836,5.832c1.495,1.349,2.472,2.102,2.92,2.251c2.246,1.646,4.378,2.957,6.399,3.925c2.023,0.977,4.302,1.609,6.848,1.911
			h1.346v16.839c3.739,0.298,7.105,0.298,10.103,0c5.239-0.451,10.138-1.534,14.705-3.255c4.564-1.722,8.569-4.078,12.011-7.078
			c1.199-0.893,2.281-1.865,3.255-2.915c0.972-1.047,1.91-2.173,2.807-3.363c1.495-2.098,2.842-4.492,4.042-7.189l-20.879-8.98
			c-0.304,0.749-0.64,1.387-1.011,1.907c-0.375,0.525-0.711,1.093-1.012,1.684c-0.446,0.753-0.897,1.428-1.345,2.023
			c-0.45,0.6-0.975,1.199-1.573,1.794c-3.589,3.442-7.633,5.469-12.121,6.064c-1.349,0.298-2.583,0.484-3.707,0.559
			c-1.121,0.078-2.283,0.041-3.478-0.112h-1.349l-0.223-7.854l1.572,0.223c1.794,0.153,3.89,0,6.285-0.451
			c1.346-0.298,2.73-0.781,4.155-1.46c1.418-0.67,2.581-1.604,3.479-2.804c2.095-2.247,3.33-4.414,3.706-6.511
			c0.37-2.098,0.561-4.567,0.561-7.408V0h40.858v69.147h-7.631v30.088c0.147,4.79-0.223,9.58-1.123,14.369
			c-0.3,1.042-0.599,2.019-0.9,2.921c-0.3,0.893-0.598,1.79-0.897,2.688l11.002,4.716l-0.675,1.125c0,0.148-0.19,0.637-0.56,1.461
			c-0.376,0.822-0.865,1.795-1.46,2.916c-0.6,1.12-1.274,2.246-2.023,3.371c-0.746,1.12-1.421,2.13-2.017,3.027
			c-1.201,1.498-2.397,2.958-3.594,4.376c-1.2,1.424-2.546,2.734-4.041,3.934c-9.429,7.781-21.407,12.119-35.923,13.021H149.218z
			 M104.09,138.973c2.393,2.246,4.715,4.042,6.962,5.39c8.677,5.688,18.109,8.976,28.286,9.878c0.597,0.148,1.908,0.224,3.929,0.224
			h5.95h2.918c6.736-0.298,13.021-1.53,18.86-3.702c5.837-2.172,10.921-5.055,15.268-8.649c1.347-1.19,2.618-2.429,3.815-3.703
			c1.195-1.269,2.394-2.654,3.592-4.152c0.748-1.195,1.647-2.691,2.694-4.487c1.045-1.795,1.871-3.293,2.472-4.492l-8.309-3.59
			c-0.75,1.348-1.458,2.655-2.132,3.925c-0.672,1.273-1.457,2.512-2.358,3.706c-0.897,1.2-1.871,2.358-2.917,3.483
			c-1.049,1.12-2.172,2.208-3.367,3.251c-7.636,6.44-17.063,10.105-28.289,10.998c-0.751,0-1.5,0.046-2.246,0.116
			c-0.751,0.079-1.572,0.111-2.469,0.111c-1.2,0-2.395-0.032-3.593-0.111c-1.199-0.07-2.395-0.187-3.592-0.34h-1.122v-16.834
			c-2.695-0.451-5.091-1.2-7.185-2.242c-2.097-1.051-4.192-2.325-6.288-3.822c-0.3-0.145-0.751-0.446-1.348-0.894
			c-0.6-0.455-1.272-0.977-2.018-1.576L104.09,138.973z M115.991,112.479c0.749,0.897,1.644,1.832,2.694,2.809
			c1.044,0.973,2.019,1.832,2.919,2.581l4.041-4.265c-1.648-1.199-3.444-2.92-5.387-5.167L115.991,112.479z M144.279,122.803
			c0.749,0.154,1.574,0.195,2.469,0.117c0.897-0.075,1.869-0.187,2.918-0.34c4.492-0.893,8.006-2.762,10.554-5.608
			c1.044-0.902,1.941-2.019,2.692-3.367c0.746-1.199,1.495-2.622,2.244-4.269l0.449-1.35l23.35,10.105
			c0.297-0.748,0.56-1.566,0.787-2.469c0.225-0.897,0.484-1.795,0.785-2.697c1.046-4.186,1.495-8.678,1.347-13.468v-3.925
			c0-1.874-0.038-4.865-0.109-8.985c-0.079-4.116-0.114-9.915-0.114-17.401H168.3V7.859h26.045v58.6h4.937V2.694h-35.47v96.541
			c0,3.144-0.227,5.915-0.675,8.305c-0.447,2.4-1.872,4.865-4.265,7.413c-1.199,1.344-2.621,2.428-4.267,3.255
			c-1.646,0.819-3.295,1.452-4.938,1.907c-0.898,0.297-1.834,0.446-2.806,0.446h-2.807L144.279,122.803z M170.996,66.458h20.655
			V10.552h-20.655V66.458z"/>
		<path clip-path="url(#SVGID_6_)" fill="#D7DFF2" d="M368.338,77.685v1.116c0,10.928-2.058,21.104-6.174,30.535
			c-4.117,9.431-9.767,17.736-16.949,24.921c-7.186,7.186-15.492,12.794-24.919,16.84c-9.429,4.04-19.611,6.063-30.535,6.063
			c-10.775,0-20.957-2.056-30.533-6.175c-9.582-4.12-17.926-9.729-25.032-16.84c-7.111-7.11-12.726-15.453-16.838-25.033
			c-4.12-9.58-6.175-19.755-6.175-30.534c0-15.263,4.113-29.41,12.349-42.433l0.896-1.121l7.635,4.938
			c2.391-3.592,5.236-7.108,8.532-10.549c8.678-8.385,18.706-14.292,30.083-17.741l-2.469-8.754l1.346-0.224
			C275.987,0.9,282.722,0,289.76,0c10.476,0,20.728,2.1,30.757,6.287c1.044,0.449,2.244,1.011,3.591,1.684
			c1.348,0.674,2.657,1.386,3.931,2.13c1.268,0.753,2.43,1.425,3.479,2.023c1.046,0.6,1.719,1.048,2.021,1.346
			c-0.151,0.151-0.302,0.337-0.446,0.56c-0.154,0.226-0.754,1.091-1.8,2.586l-3.145,4.264c3.891,2.695,7.334,5.539,10.329,8.534
			l0.451,0.446c3.892,3.893,7.186,8.083,9.881,12.573l0.672,1.346l-6.962,3.367l-0.675-0.896c-2.544-4.19-5.461-7.934-8.751-11.226
			c-3.144-3.146-6.29-5.762-9.432-7.861l-10.326,14.372l-1.123-0.672c-3.445-2.095-7.113-3.63-11.002-4.604
			c-3.895-0.972-7.857-1.46-11.898-1.46c-7.333,0-14.182,1.651-20.543,4.941c-6.364,3.295-11.712,7.857-16.053,13.693l6.061,4.042
			l-0.672,1.126c-4.043,6.138-6.061,12.872-6.061,20.201c0,5.092,0.932,9.878,2.806,14.37c1.871,4.492,4.451,8.417,7.746,11.789
			c3.29,3.366,7.146,6.06,11.564,8.082c4.411,2.019,9.091,3.106,14.03,3.255V38.84h1.347c5.538,0,10.737,1.051,15.604,3.144
			c4.862,2.098,9.129,4.939,12.795,8.534c3.667,3.59,6.545,7.822,8.645,12.682c2.093,4.869,3.144,10.068,3.144,15.602
			c0,5.39-1.011,10.52-3.029,15.384c-2.023,4.864-4.795,9.087-8.309,12.682c-3.518,3.595-7.635,6.479-12.349,8.646
			c-4.712,2.167-9.763,3.329-15.153,3.478v26.043c4.79-0.298,9.126-0.819,13.021-1.566c9.126-1.945,17.435-5.651,24.921-11.115
			c7.48-5.465,13.616-12.235,18.408-20.318c5.985-10.328,8.979-21.475,8.979-33.454v-1.121L368.338,77.685z M289.76,154.464
			c10.326,0,20.056-1.945,29.186-5.841c9.129-3.889,17.137-9.199,24.025-15.938c6.88-6.734,12.347-14.626,16.389-23.685
			c4.043-9.06,6.136-18.75,6.286-29.075h-6.736c-0.151,5.99-1.012,11.784-2.581,17.402c-1.574,5.608-3.854,10.966-6.847,16.049
			c-4.939,8.385-11.337,15.379-19.195,20.996c-7.858,5.608-16.504,9.469-25.933,11.562c-2.397,0.599-4.792,1.005-7.183,1.232
			c-2.397,0.228-4.866,0.339-7.41,0.339h-1.572v-28.517c-5.39-0.148-10.438-1.311-15.153-3.478s-8.834-5.051-12.349-8.646
			c-3.518-3.595-6.286-7.817-8.309-12.682c-2.02-4.864-3.029-9.994-3.029-15.384c0-7.329,1.941-14.211,5.838-20.652l-3.818-2.469
			c-4.641,7.487-6.959,15.486-6.959,24.024c0,5.985,1.083,11.672,3.252,17.058c2.17,5.395,5.428,10.185,9.766,14.37l0.902,1.125
			l-16.616,16.166l-0.898-0.898l-0.222-0.228c-5.693-5.534-10.182-11.859-13.472-18.97c-3.296-7.11-5.388-14.402-6.286-21.889
			c-0.9-7.482-0.563-15.044,1.01-22.675c1.572-7.636,4.453-14.819,8.643-21.553l-5.387-3.369
			c-7.486,11.975-11.227,25.224-11.227,39.738c0,10.481,1.984,20.322,5.95,29.525c3.965,9.202,9.392,17.248,16.276,24.135
			c6.882,6.884,14.931,12.311,24.137,16.272C269.44,152.482,279.283,154.464,289.76,154.464 M232.734,43.779
			c-3.894,6.44-6.587,13.249-8.082,20.429c-1.498,7.185-1.871,14.37-1.121,21.555c0.746,7.185,2.653,14.109,5.725,20.764
			c3.064,6.669,7.216,12.687,12.458,18.077l12.797-12.571c-4.192-4.343-7.373-9.281-9.54-14.82
			c-2.172-5.529-3.258-11.371-3.258-17.509c0-8.984,2.469-17.439,7.41-25.373L232.734,43.779z M242.39,31.206
			c-1.65,1.648-3.142,3.335-4.491,5.053c-1.347,1.723-2.621,3.481-3.815,5.276l16.388,10.555
			c4.489-6.288,10.138-11.189,16.95-14.709c6.808-3.514,14.105-5.273,21.89-5.273c8.38,0,16.165,2.018,23.348,6.062l8.757-12.351
			c-6.734-4.04-13.917-6.734-21.555-8.081h-0.672c-1.049-0.147-2.621-0.297-4.714-0.448c-2.097-0.149-4.267-0.226-6.511-0.226
			h-3.704c-1.126,0-2.135,0.153-3.032,0.451c-2.244,0.148-4.641,0.597-7.186,1.346l-1.123,0.448l-1.569-4.941
			C260.272,17.362,250.617,22.975,242.39,31.206 M240.594,127.296l0.222,0.228l0.672-1.125L240.594,127.296z M289.76,2.694
			c-2.997,0-6.027,0.188-9.094,0.561c-3.069,0.376-6.099,0.937-9.091,1.683L273.372,11c5.534-1.195,10.921-1.795,16.163-1.795
			c13.169,0,25.295,3.446,36.373,10.329c0.896-1.197,1.684-2.246,2.358-3.144c0.672-0.899,1.155-1.648,1.457-2.247
			C317.746,6.513,304.427,2.694,289.76,2.694 M324.333,21.552c-10.628-6.431-22.224-9.654-34.798-9.654
			c-2.547,0-5.127,0.112-7.746,0.337c-2.621,0.225-5.201,0.714-7.746,1.46l0.675,2.244c1.044-0.297,2.055-0.521,3.032-0.672
			c0.97-0.146,1.981-0.3,3.028-0.451c1.046-0.146,2.169-0.256,3.368-0.335c1.199-0.077,2.473-0.114,3.818-0.114
			c2.391,0,4.637,0.077,6.734,0.226c2.095,0.149,3.741,0.305,4.941,0.451l0.673,0.223c8.38,1.349,15.937,4.121,22.674,8.308
			L324.333,21.552z M290.883,116.297c4.939-0.148,9.617-1.236,14.03-3.255c4.414-2.022,8.269-4.716,11.564-8.082
			c3.291-3.372,5.874-7.297,7.747-11.789c1.87-4.492,2.804-9.278,2.804-14.37c0-5.083-0.935-9.84-2.804-14.253
			c-1.874-4.414-4.457-8.311-7.747-11.677c-3.295-3.367-7.15-6.062-11.564-8.079c-4.413-2.022-9.091-3.18-14.03-3.483V116.297z
			 M336.233,30.983c-2.845-2.844-6.062-5.462-9.654-7.859l-1.345,2.023c3.592,2.396,6.806,5.014,9.654,7.857
			c3.589,3.593,6.431,7.183,8.53,10.775l2.244-1.124c-1.2-2.092-2.581-4.073-4.152-5.95c-1.573-1.867-3.182-3.702-4.828-5.499
			L336.233,30.983z"/>
		<path clip-path="url(#SVGID_6_)" fill="#D7DFF2" d="M453.984,157.16c-8.531,0-16.764-1.311-24.695-3.935
			c-7.935-2.612-15.191-6.282-21.775-10.998c-6.588-4.715-12.314-10.44-17.177-17.174c-4.864-6.738-8.643-14.146-11.337-22.229
			l-0.224-1.349l22.675-7.404c-0.75-2.548-1.313-5.086-1.684-7.635c-0.374-2.539-0.562-5.088-0.562-7.636
			c0-6.283,1.087-12.379,3.258-18.294c2.167-5.911,5.197-11.259,9.09-16.056l-18.407-15.716l0.896-0.895
			c7.484-8.98,16.426-15.863,26.83-20.653C431.272,2.395,442.312,0,453.984,0c10.479,0,20.467,1.948,29.975,5.836
			c9.504,3.897,17.995,9.655,25.479,17.288l0.9,0.9l-22.899,22.898l-0.899-0.9c-8.979-8.977-19.836-13.47-32.556-13.47
			c-6.885,0-13.396,1.388-19.529,4.155c-6.14,2.769-11.376,6.773-15.716,12.009c-3.592,4.19-6.363,8.869-8.308,14.035
			c-1.948,5.167-2.918,10.515-2.918,16.049c0,5.097,0.749,9.808,2.243,14.146c1.495,4.795,3.704,9.171,6.625,13.133
			c2.918,3.972,6.285,7.375,10.104,10.217c3.815,2.842,8.079,5.051,12.797,6.628c4.716,1.566,9.615,2.353,14.702,2.353
			c6.437,0,12.351-1.195,17.739-3.59c5.534-2.251,10.55-5.618,15.043-10.106l1.12-0.896l22.452,22.675l-0.9,0.897
			c-7.186,7.186-15.642,12.878-25.366,17.062C474.193,155.211,464.162,157.16,453.984,157.16 M381.92,103.276
			c2.694,7.631,6.397,14.63,11.109,20.991c4.716,6.362,10.218,11.789,16.504,16.276c6.289,4.488,13.207,7.967,20.768,10.441
			c7.557,2.464,15.453,3.7,23.684,3.7c9.88,0,19.534-1.943,28.966-5.835c4.489-1.8,8.717-4.005,12.684-6.623
			c3.965-2.618,7.669-5.575,11.112-8.868l-19.086-19.085c-4.341,4.344-9.279,7.636-14.813,9.878
			c-6.287,2.548-12.574,3.818-18.862,3.818c-5.385,0-10.548-0.819-15.49-2.471c-4.938-1.646-9.468-3.999-13.581-7.068
			c-4.12-3.069-7.713-6.696-10.777-10.892c-3.069-4.185-5.428-8.826-7.073-13.923c-0.752-2.391-1.31-4.827-1.684-7.292
			c-0.375-2.474-0.561-4.976-0.561-7.524c0-5.836,1.012-11.486,3.032-16.946c2.021-5.46,4.974-10.445,8.868-14.933
			c4.636-5.388,10.215-9.576,16.726-12.572c6.51-2.993,13.357-4.49,20.54-4.49c6.288,0,12.312,1.123,18.077,3.365
			c5.759,2.248,10.889,5.542,15.378,9.879l19.307-19.081c-7.185-7.034-15.304-12.352-24.358-15.941
			c-9.059-3.593-18.523-5.388-28.403-5.388c-11.076,0-21.552,2.244-31.43,6.736c-9.879,4.49-18.411,10.852-25.595,19.083
			l18.411,15.491l-0.898,1.121c-4.041,4.792-7.15,10.028-9.317,15.716c-2.171,5.692-3.256,11.677-3.256,17.96
			c0,5.246,0.822,10.482,2.471,15.719l0.448,1.349L381.92,103.276z M454.211,148.399c-9.58,0-18.6-1.832-27.054-5.497
			c-8.457-3.664-15.828-8.646-22.115-14.932c-6.285-6.283-11.264-13.659-14.929-22.113c-3.671-8.455-5.499-17.472-5.499-27.057
			c0-9.57,1.828-18.555,5.499-26.94c3.665-8.38,8.644-15.716,14.929-22.001c6.287-6.287,13.658-11.261,22.115-14.93
			c8.454-3.664,17.474-5.499,27.054-5.499c9.577,0,18.558,1.835,26.941,5.499c8.383,3.669,15.717,8.643,22.002,14.93
			c6.284,6.285,11.261,13.621,14.933,22.001c3.664,8.385,5.499,17.37,5.499,26.94c0,9.585-1.835,18.602-5.499,27.057
			c-3.672,8.454-8.648,15.83-14.933,22.113c-6.285,6.286-13.619,11.268-22.002,14.932
			C472.769,146.567,463.788,148.399,454.211,148.399 M454.211,11.898c-9.28,0-17.96,1.765-26.045,5.29
			c-8.08,3.521-15.153,8.28-21.213,14.279c-6.064,6-10.854,13.079-14.369,21.255c-3.52,8.166-5.277,16.825-5.277,25.967
			c0,9.301,1.758,17.998,5.277,26.089c3.515,8.096,8.305,15.179,14.369,21.253c6.06,6.072,13.133,10.873,21.213,14.392
			c8.085,3.526,16.765,5.284,26.045,5.284c9.126,0,17.771-1.758,25.931-5.284c8.156-3.519,15.229-8.319,21.218-14.392
			c5.982-6.074,10.736-13.157,14.255-21.253c3.517-8.092,5.276-16.788,5.276-26.089c0-9.142-1.76-17.802-5.276-25.967
			c-3.519-8.176-8.272-15.255-14.255-21.255c-5.988-5.999-13.062-10.759-21.218-14.279
			C471.982,13.663,463.337,11.898,454.211,11.898"/>
		<path clip-path="url(#SVGID_6_)" fill="#D7DFF2" d="M693.203,77.685v1.116c0,10.928-2.065,21.104-6.177,30.535
			c-4.12,9.431-9.766,17.736-16.951,24.921c-7.185,7.186-15.49,12.794-24.921,16.84c-9.432,4.04-19.606,6.063-30.535,6.063
			c-10.774,0-20.954-2.056-30.529-6.175c-9.584-4.12-17.928-9.729-25.034-16.84c-7.112-7.11-12.725-15.453-16.838-25.033
			c-4.121-9.58-6.177-19.755-6.177-30.534c0-15.263,4.116-29.41,12.35-42.433l0.898-1.121l7.634,4.938
			c2.395-3.592,5.234-7.108,8.533-10.549c8.678-8.385,18.703-14.292,30.079-17.741l-2.465-8.754l1.343-0.224
			C600.846,0.9,607.584,0,614.619,0c10.474,0,20.732,2.1,30.758,6.287c1.047,0.449,2.246,1.011,3.591,1.684
			c1.348,0.674,2.66,1.386,3.934,2.13c1.265,0.753,2.429,1.425,3.479,2.023c1.041,0.6,1.72,1.048,2.018,1.346
			c-0.148,0.151-0.298,0.337-0.446,0.56c-0.149,0.226-0.753,1.091-1.795,2.586l-3.144,4.264c3.888,2.695,7.329,5.539,10.323,8.534
			l0.451,0.446c3.893,3.893,7.186,8.083,9.883,12.573l0.67,1.346l-6.958,3.367l-0.679-0.896c-2.539-4.19-5.459-7.934-8.752-11.226
			c-3.144-3.146-6.287-5.762-9.432-7.861l-10.323,14.372l-1.125-0.672c-3.446-2.095-7.111-3.63-11.004-4.604
			c-3.892-0.972-7.854-1.46-11.895-1.46c-7.339,0-14.186,1.651-20.546,4.941c-6.362,3.295-11.71,7.857-16.053,13.693l6.063,4.042
			l-0.67,1.126c-4.046,6.138-6.064,12.872-6.064,20.201c0,5.092,0.931,9.878,2.806,14.37c1.869,4.492,4.449,8.417,7.746,11.789
			c3.288,3.366,7.145,6.06,11.565,8.082c4.41,2.019,9.087,3.106,14.026,3.255V38.84h1.348c5.534,0,10.738,1.051,15.607,3.144
			c4.859,2.098,9.125,4.939,12.793,8.534c3.669,3.59,6.543,7.822,8.646,12.682c2.093,4.869,3.144,10.068,3.144,15.602
			c0,5.39-1.014,10.52-3.031,15.384c-2.02,4.864-4.791,9.087-8.307,12.682c-3.515,3.595-7.636,6.479-12.352,8.646
			c-4.715,2.167-9.766,3.329-15.15,3.478v26.043c4.789-0.298,9.124-0.819,13.021-1.566c9.123-1.945,17.429-5.651,24.922-11.115
			c7.478-5.465,13.616-12.235,18.409-20.318c5.981-10.328,8.977-21.475,8.977-33.454v-1.121L693.203,77.685z M614.619,154.464
			c10.329,0,20.058-1.945,29.186-5.841c9.135-3.889,17.143-9.199,24.025-15.938c6.882-6.734,12.347-14.626,16.388-23.685
			c4.046-9.06,6.138-18.75,6.287-29.075h-6.734c-0.153,5.99-1.014,11.784-2.586,17.402c-1.571,5.608-3.85,10.966-6.844,16.049
			c-4.939,8.385-11.338,15.379-19.198,20.996c-7.854,5.608-16.498,9.469-25.931,11.562c-2.395,0.599-4.789,1.005-7.18,1.232
			c-2.4,0.228-4.869,0.339-7.413,0.339h-1.571v-28.517c-5.385-0.148-10.436-1.311-15.15-3.478
			c-4.717-2.167-8.837-5.051-12.353-8.646c-3.515-3.595-6.282-7.817-8.306-12.682c-2.019-4.864-3.031-9.994-3.031-15.384
			c0-7.329,1.943-14.211,5.841-20.652l-3.818-2.469c-4.646,7.487-6.962,15.486-6.962,24.024c0,5.985,1.083,11.672,3.256,17.058
			c2.167,5.395,5.422,10.185,9.766,14.37l0.902,1.125l-16.616,16.166l-0.897-0.898l-0.223-0.228
			c-5.693-5.534-10.184-11.859-13.473-18.97c-3.295-7.11-5.39-14.402-6.288-21.889c-0.896-7.482-0.561-15.044,1.01-22.675
			c1.572-7.636,4.453-14.819,8.645-21.553l-5.388-3.369c-7.486,11.975-11.226,25.224-11.226,39.738
			c0,10.481,1.983,20.322,5.95,29.525c3.963,9.202,9.392,17.248,16.276,24.135c6.883,6.884,14.929,12.311,24.136,16.272
			C594.303,152.482,604.137,154.464,614.619,154.464 M557.593,43.779c-3.894,6.44-6.587,13.249-8.079,20.429
			c-1.498,7.185-1.873,14.37-1.123,21.555c0.746,7.185,2.655,14.109,5.726,20.764c3.063,6.669,7.219,12.687,12.46,18.077
			l12.793-12.571c-4.19-4.343-7.37-9.281-9.537-14.82c-2.173-5.529-3.256-11.371-3.256-17.509c0-8.984,2.469-17.439,7.408-25.373
			L557.593,43.779z M567.25,31.206c-1.646,1.648-3.144,3.335-4.491,5.053c-1.349,1.723-2.624,3.481-3.818,5.276l16.392,10.555
			c4.488-6.288,10.14-11.189,16.951-14.709c6.809-3.514,14.105-5.273,21.891-5.273c8.38,0,16.164,2.018,23.345,6.062l8.761-12.351
			c-6.738-4.04-13.924-6.734-21.559-8.081h-0.67c-1.052-0.147-2.623-0.297-4.716-0.448c-2.098-0.149-4.265-0.226-6.511-0.226h-3.701
			c-1.126,0-2.135,0.153-3.032,0.451c-2.246,0.148-4.641,0.597-7.19,1.346l-1.115,0.448l-1.571-4.941
			C585.132,17.362,575.481,22.975,567.25,31.206 M565.456,127.296l0.223,0.228l0.669-1.125L565.456,127.296z M614.619,2.694
			c-2.994,0-6.026,0.188-9.091,0.561c-3.069,0.376-6.098,0.937-9.093,1.683L598.231,11c5.534-1.195,10.924-1.795,16.164-1.795
			c13.171,0,25.295,3.446,36.371,10.329c0.898-1.197,1.684-2.246,2.358-3.144c0.67-0.899,1.158-1.648,1.46-2.247
			C642.605,6.513,629.288,2.694,614.619,2.694 M649.195,21.552c-10.627-6.431-22.225-9.654-34.8-9.654
			c-2.548,0-5.124,0.112-7.747,0.337c-2.618,0.225-5.198,0.714-7.748,1.46l0.681,2.244c1.041-0.297,2.055-0.521,3.031-0.672
			c0.967-0.146,1.981-0.3,3.027-0.451c1.047-0.146,2.172-0.256,3.371-0.335c1.191-0.077,2.465-0.114,3.813-0.114
			c2.391,0,4.641,0.077,6.734,0.226c2.097,0.149,3.738,0.305,4.938,0.451l0.679,0.223c8.38,1.349,15.938,4.121,22.675,8.308
			L649.195,21.552z M615.745,116.297c4.939-0.148,9.616-1.236,14.03-3.255c4.413-2.022,8.268-4.716,11.565-8.082
			c3.287-3.372,5.869-7.297,7.742-11.789c1.87-4.492,2.805-9.278,2.805-14.37c0-5.083-0.935-9.84-2.805-14.253
			c-1.873-4.414-4.455-8.311-7.742-11.677c-3.298-3.367-7.152-6.062-11.565-8.079c-4.414-2.022-9.091-3.18-14.03-3.483V116.297z
			 M661.096,30.983c-2.846-2.844-6.064-5.462-9.654-7.859l-1.348,2.023c3.595,2.396,6.808,5.014,9.653,7.857
			c3.59,3.593,6.436,7.183,8.534,10.775l2.245-1.124c-1.199-2.092-2.585-4.073-4.156-5.95c-1.572-1.867-3.182-3.702-4.828-5.499
			L661.096,30.983z"/>
		<path clip-path="url(#SVGID_6_)" fill="#010101" d="M0,96.063l4.555-8.566c1.226,0.837,2.892,1.669,4.783,1.669
			c2.446,0,4.115-1.559,4.115-4.172V61.316h11.229v23.847c0,9.505-5.725,13.905-14.342,13.905C6.725,99.067,2.89,98.286,0,96.063"/>
		<path clip-path="url(#SVGID_6_)" fill="#010101" d="M42.584,79.88c0-11.394,8.838-19.178,20.29-19.178
			c11.454,0,20.29,7.785,20.29,19.178c0,11.403-8.835,19.178-20.29,19.178C51.422,99.058,42.584,91.283,42.584,79.88 M71.77,79.88
			c0-5.171-3.502-9.283-8.896-9.283c-5.392,0-8.894,4.111-8.894,9.283c0,5.171,3.502,9.282,8.894,9.282
			C68.268,89.162,71.77,85.051,71.77,79.88"/>
		<polygon clip-path="url(#SVGID_6_)" fill="#010101" points="125.975,98.398 112.301,79.605 112.301,98.398 101.067,98.398 
			101.067,61.316 112.633,61.316 125.528,78.884 125.528,61.316 136.759,61.316 136.759,98.398 		"/>
		<path clip-path="url(#SVGID_6_)" fill="#010101" d="M181.401,98.398l-1.334-4.339h-13.342l-1.333,4.339h-12.729l13.676-37.083
			h14.119l13.677,37.083H181.401z M173.396,72.318l-3.667,11.957h7.339L173.396,72.318z"/>
		<polygon clip-path="url(#SVGID_6_)" fill="#010101" points="214.646,98.398 214.646,71.1 204.694,71.1 204.694,61.316 
			235.771,61.316 235.771,71.1 225.875,71.1 225.875,98.398 		"/>
		<polygon clip-path="url(#SVGID_6_)" fill="#010101" points="278.189,98.398 278.189,84.219 264.904,84.219 264.904,98.398 
			253.673,98.398 253.673,61.316 264.904,61.316 264.904,74.43 278.189,74.43 278.189,61.316 289.421,61.316 289.421,98.398 		"/>
		<path clip-path="url(#SVGID_6_)" fill="#010101" d="M334.062,98.398l-1.334-4.339h-13.342l-1.333,4.339h-12.73L319,61.316h14.119
			l13.677,37.083H334.062z M326.057,72.318l-3.67,11.957h7.341L326.057,72.318z"/>
		<polygon clip-path="url(#SVGID_6_)" fill="#010101" points="387.601,98.398 373.924,79.605 373.924,98.398 362.692,98.398 
			362.692,61.316 374.256,61.316 387.156,78.884 387.156,61.316 398.385,61.316 398.385,98.398 		"/>
		<path clip-path="url(#SVGID_6_)" fill="#010101" d="M444.361,79.88c0-11.45,8.784-19.178,20.403-19.178
			c9.729,0,14.621,5.673,16.843,10.784l-9.673,4.506c-0.942-2.893-3.833-5.395-7.17-5.395c-5.392,0-9.005,4.111-9.005,9.283
			c0,5.171,3.613,9.282,9.005,9.282c3.337,0,6.228-2.492,7.17-5.39l9.673,4.451c-2.167,4.948-7.113,10.835-16.843,10.835
			C453.146,99.058,444.361,91.283,444.361,79.88"/>
		<path clip-path="url(#SVGID_6_)" fill="#010101" d="M497.009,79.88c0-11.394,8.839-19.178,20.291-19.178
			c11.455,0,20.293,7.785,20.293,19.178c0,11.403-8.838,19.178-20.293,19.178C505.848,99.058,497.009,91.283,497.009,79.88
			 M526.196,79.88c0-5.171-3.503-9.283-8.896-9.283c-5.391,0-8.896,4.111-8.896,9.283c0,5.171,3.505,9.282,8.896,9.282
			C522.693,89.162,526.196,85.051,526.196,79.88"/>
		<path clip-path="url(#SVGID_6_)" fill="#010101" d="M555.493,83.163V61.316h11.395v21.457c0,3.562,2.34,6.389,6.952,6.389
			c4.558,0,6.892-2.828,6.892-6.389V61.316h11.398v21.792c0,9.227-5.78,15.95-18.29,15.95
			C561.335,99.058,555.493,92.334,555.493,83.163"/>
		<polygon clip-path="url(#SVGID_6_)" fill="#010101" points="612.033,98.398 612.033,61.316 623.265,61.316 623.265,88.613 
			637.332,88.613 637.332,98.398 		"/>
		<polygon clip-path="url(#SVGID_6_)" fill="#010101" points="658.119,98.398 658.119,71.1 648.173,71.1 648.173,61.316 
			679.251,61.316 679.251,71.1 669.351,71.1 669.351,98.398 		"/>
		<path clip-path="url(#SVGID_6_)" fill="#010101" d="M694.039,79.88c0-11.394,8.837-19.178,20.29-19.178s20.29,7.785,20.29,19.178
			c0,11.403-8.837,19.178-20.29,19.178S694.039,91.283,694.039,79.88 M723.225,79.88c0-5.171-3.506-9.283-8.896-9.283
			s-8.896,4.111-8.896,9.283c0,5.171,3.506,9.282,8.896,9.282S723.225,85.051,723.225,79.88"/>
		<polygon clip-path="url(#SVGID_6_)" fill="#010101" points="777.431,98.398 763.754,79.605 763.754,98.398 752.522,98.398 
			752.522,61.316 764.084,61.316 776.983,78.884 776.983,61.316 788.215,61.316 788.215,98.398 		"/>
	</g>
</g>
<g>
	<defs>
		<polyline id="SVGID_7_" points="706.829,-215.523 -85.171,-215.523 -85.171,396.477 706.829,396.477 		"/>
	</defs>
	<clipPath id="SVGID_8_">
		<use xlink:href="#SVGID_7_"  overflow="visible"/>
	</clipPath>
</g>
<g>
	<defs>
		<polyline id="SVGID_9_" points="706.829,396.477 -85.171,396.477 -85.171,-215.523 706.829,-215.523 		"/>
	</defs>
	<clipPath id="SVGID_10_">
		<use xlink:href="#SVGID_9_"  overflow="visible"/>
	</clipPath>
	<g clip-path="url(#SVGID_10_)">
		<defs>
			<polyline id="SVGID_11_" points="706.829,-215.523 -85.171,-215.523 -85.171,396.477 706.829,396.477 			"/>
		</defs>
		<clipPath id="SVGID_12_">
			<use xlink:href="#SVGID_11_"  overflow="visible"/>
		</clipPath>
	</g>
</g>
</svg>
