<?xml version="1.0" encoding="utf-8"?>
<!-- Generator: Adobe Illustrator 16.0.0, SVG Export Plug-In . SVG Version: 6.00 Build 0)  -->
<!DOCTYPE svg PUBLIC "-//W3C//DTD SVG 1.1//EN" "http://www.w3.org/Graphics/SVG/1.1/DTD/svg11.dtd">
<svg version="1.1" id="Layer_1" xmlns="http://www.w3.org/2000/svg" xmlns:xlink="http://www.w3.org/1999/xlink" x="0px" y="0px"
	 width="155.652px" height="31.048px" viewBox="0 0 155.652 31.048" enable-background="new 0 0 155.652 31.048"
	 xml:space="preserve">
<path fill="#010101" d="M0,28.619l3.689-6.93c0.991,0.675,2.34,1.35,3.871,1.35c1.979,0,3.33-1.26,3.33-3.375V0.495h9.089v19.304
	c0,7.695-4.634,11.25-11.609,11.25C5.444,31.048,2.34,30.418,0,28.619"/>
<path fill="#010101" d="M34.469,15.524C34.469,6.298,41.624,0,50.895,0c9.269,0,16.424,6.299,16.424,15.524
	s-7.155,15.524-16.424,15.524C41.624,31.048,34.469,24.75,34.469,15.524 M58.093,15.524c0-4.185-2.835-7.515-7.198-7.515
	c-4.365,0-7.2,3.33-7.2,7.515s2.835,7.515,7.2,7.515C55.258,23.039,58.093,19.708,58.093,15.524"/>
<path fill="#010101" d="M80.188,15.524C80.188,6.253,87.299,0,96.704,0c7.875,0,11.835,4.59,13.634,8.729l-7.83,3.646
	c-0.764-2.34-3.104-4.365-5.804-4.365c-4.366,0-7.29,3.33-7.29,7.515s2.924,7.515,7.29,7.515c2.7,0,5.04-2.024,5.804-4.365
	l7.83,3.601c-1.754,4.005-5.759,8.774-13.634,8.774C87.299,31.048,80.188,24.75,80.188,15.524"/>
<path fill="#010101" d="M122.803,15.524C122.803,6.298,129.958,0,139.229,0c9.269,0,16.424,6.299,16.424,15.524
	s-7.155,15.524-16.424,15.524C129.958,31.048,122.803,24.75,122.803,15.524 M146.427,15.524c0-4.185-2.835-7.515-7.198-7.515
	c-4.365,0-7.2,3.33-7.2,7.515s2.835,7.515,7.2,7.515C143.592,23.039,146.427,19.708,146.427,15.524"/>
</svg>
