<?xml version="1.0" encoding="utf-8"?>
<!-- Generator: Adobe Illustrator 16.0.0, SVG Export Plug-In . SVG Version: 6.00 Build 0)  -->
<!DOCTYPE svg PUBLIC "-//W3C//DTD SVG 1.1//EN" "http://www.w3.org/Graphics/SVG/1.1/DTD/svg11.dtd">
<svg version="1.1" xmlns="http://www.w3.org/2000/svg" xmlns:xlink="http://www.w3.org/1999/xlink" x="0px" y="0px"
	 width="64.344px" height="64.455px" viewBox="0 0 64.344 64.455" enable-background="new 0 0 64.344 64.455" xml:space="preserve">
<g id="Layer_1">
	<rect fill="#2BA7DF" width="64.344" height="64.455"/>
	<path fill="#FFFFFF" d="M53.619,18.9c-1.578,0.702-3.275,1.176-5.055,1.388c1.816-1.091,3.214-2.818,3.869-4.877
		c-1.698,1.01-3.581,1.745-5.586,2.14c-1.607-1.714-3.895-2.784-6.425-2.784c-4.861,0-8.801,3.948-8.801,8.815
		c0,0.693,0.077,1.364,0.227,2.009c-7.312-0.367-13.797-3.876-18.139-9.212c-0.756,1.304-1.19,2.818-1.19,4.434
		c0,3.057,1.553,5.757,3.913,7.337c-1.441-0.045-2.798-0.444-3.985-1.103v0.111c0,4.271,3.034,7.834,7.06,8.644
		c-0.738,0.201-1.519,0.312-2.319,0.312c-0.565,0-1.119-0.057-1.655-0.16c1.119,3.503,4.369,6.05,8.22,6.123
		c-3.011,2.363-6.805,3.773-10.931,3.773c-0.709,0-1.408-0.043-2.097-0.123c3.895,2.5,8.521,3.959,13.492,3.959
		c16.186,0,25.037-13.431,25.037-25.082c0-0.381-0.01-0.761-0.024-1.142C50.945,22.222,52.437,20.669,53.619,18.9"/>
	<rect x="0" y="-0.001" fill="#CDCCCC" width="64.343" height="64.456"/>
	<path fill="#FFFFFF" d="M53.619,18.899c-1.578,0.701-3.275,1.176-5.055,1.388c1.816-1.091,3.215-2.817,3.869-4.877
		c-1.697,1.011-3.582,1.745-5.586,2.14c-1.607-1.713-3.895-2.783-6.426-2.783c-4.861,0-8.8,3.947-8.8,8.814
		c0,0.693,0.078,1.364,0.227,2.01c-7.312-0.367-13.797-3.877-18.139-9.213c-0.756,1.305-1.19,2.818-1.19,4.434
		c0,3.058,1.554,5.758,3.913,7.338c-1.44-0.045-2.798-0.444-3.984-1.104v0.111c0,4.27,3.034,7.834,7.059,8.645
		c-0.738,0.199-1.518,0.311-2.318,0.311c-0.566,0-1.119-0.057-1.655-0.16c1.119,3.502,4.369,6.049,8.219,6.123
		c-3.01,2.363-6.804,3.773-10.93,3.773c-0.709,0-1.409-0.043-2.098-0.123c3.895,2.5,8.521,3.959,13.492,3.959
		c16.186,0,25.038-13.43,25.038-25.083c0-0.381-0.01-0.76-0.023-1.141C50.945,22.22,52.436,20.668,53.619,18.899"/>
</g>
<g id="Layer_2" display="none">
</g>
</svg>
